<svg width="58" height="58" viewBox="0 0 58 58" fill="none" xmlns="http://www.w3.org/2000/svg">
<circle cx="29" cy="29" r="29" fill="#49A760"/>
<path d="M34.6789 11.757C34.7803 11.7618 34.8791 11.7925 34.9656 11.8467C35.0668 11.9101 35.1465 12.0026 35.1942 12.1122C36.7516 15.6701 35.4468 19.8188 32.1445 21.7299L32.1329 21.7366L32.1305 21.7366C31.4467 22.1241 30.7052 22.3994 29.9343 22.552V23.0425C29.9364 23.0712 29.9364 23.1 29.9343 23.1286V25.4487C30.3884 24.8997 30.9549 24.4536 31.5962 24.1407C32.2804 23.807 33.0316 23.6338 33.7928 23.6342M34.6789 11.757L35.9062 24.5684C35.9215 24.4362 35.8918 24.3028 35.822 24.1895C35.7522 24.0763 35.6463 23.9899 35.5214 23.9442L35.5042 23.9909L35.5213 23.9442C34.9684 23.7408 34.3842 23.6359 33.7951 23.6342H33.7951H33.7928M34.6789 11.757V11.7488L34.6234 11.755C34.6008 11.7575 34.5785 11.7613 34.5564 11.7664C33.6792 11.9074 32.8336 12.2032 32.0642 12.6441L32.064 12.6442C29.663 14.0344 28.3222 16.6067 28.3653 19.2742M34.6789 11.757L28.3653 19.2742M33.7928 23.6342L33.7928 23.6842L33.7927 23.6342H33.7928ZM28.7498 23.8915C28.2029 24.0268 27.6409 24.1018 27.0755 24.1019C27.0755 24.1019 27.0755 24.1019 27.0754 24.1019H27.0732L28.7498 23.8915ZM28.7498 23.8915V30.165L21.4816 30.165L21.481 30.165C21.2427 30.168 21.015 30.2642 20.8466 30.4329C20.6783 30.6017 20.5827 30.8297 20.5803 31.068V31.0685V33.6962C20.5803 34.1867 20.9897 34.5997 21.4816 34.5997H21.81L23.1335 46.489L23.1385 46.5335H23.1832H35.4488H35.4935L35.4985 46.489L36.8242 34.5997H37.1309C37.6228 34.5997 38.0322 34.1867 38.0322 33.6962L38.0322 31.0696L38.0322 31.0691C38.0298 30.8307 37.9342 30.6028 37.7659 30.434C37.5975 30.2653 37.3698 30.1691 37.1315 30.1661H37.1309H29.9343V28.8401C30.2641 28.9104 30.6009 28.9583 30.9415 28.9593H30.9416H30.9438C30.9439 28.9593 30.9439 28.9593 30.9439 28.9593L28.7498 23.8915ZM28.3653 19.2742C27.715 18.4673 26.8961 17.8115 25.9654 17.3531C24.9895 16.8724 23.9165 16.6216 22.8287 16.6197L28.3653 19.2742ZM29.9343 25.5277C29.9175 25.5486 29.9008 25.5696 29.8843 25.5907V25.5101L29.9343 25.5277ZM22.8287 16.6197H22.8264C22.8264 16.6197 22.8263 16.6197 22.8263 16.6197C21.9807 16.6197 21.1441 16.7781 20.3525 17.0762C20.3525 17.0762 20.3524 17.0762 20.3524 17.0762L20.37 17.123L22.8287 16.6197ZM22.8307 17.8042C25.2701 17.8042 27.3443 19.3148 28.2469 21.4925L25.2462 19.8978C25.2461 19.8978 25.246 19.8977 25.2459 19.8977C25.1588 19.8498 25.0612 19.8246 24.9619 19.8244H24.9618C24.8289 19.8244 24.6998 19.8691 24.5954 19.9513C24.4909 20.0336 24.4172 20.1485 24.386 20.2777C24.3548 20.4069 24.368 20.5429 24.4235 20.6637C24.4789 20.7844 24.5732 20.8829 24.6914 20.9436C24.6915 20.9436 24.6916 20.9437 24.6917 20.9437L28.1152 22.7641C27.7708 22.849 27.4261 22.9154 27.0732 22.9174C24.224 22.9173 21.8685 20.8618 21.3001 18.0825C21.8063 17.9395 22.3105 17.8063 22.8287 17.8042C22.8287 17.8042 22.8287 17.8042 22.8288 17.8042L22.8307 17.8042ZM32.0879 25.7225C31.993 25.7279 31.9005 25.756 31.8184 25.8048L30.8715 26.3646C31.5292 25.4336 32.5616 24.8186 33.7928 24.8176H33.795C33.916 24.8176 34.0352 24.8376 34.1566 24.8644C34.2057 24.8753 34.2566 24.8877 34.3082 24.9002C34.3631 24.9135 34.4186 24.927 34.4736 24.939C34.0269 26.5486 32.6822 27.7716 30.9459 27.7737C30.9075 27.7737 30.8697 27.7699 30.8311 27.7642L32.4199 26.8248C32.4199 26.8248 32.42 26.8248 32.42 26.8247C32.5318 26.7602 32.6194 26.661 32.6696 26.5421C32.7199 26.4232 32.7298 26.2911 32.6981 26.1659C32.6663 26.0408 32.5945 25.9295 32.4936 25.8489C32.3927 25.7684 32.2682 25.723 32.1391 25.7197L32.0879 25.7184V25.7225ZM21.7648 33.412V31.3495H36.8477V33.412H21.7648ZM34.2366 13.1048C35.232 16.0049 34.1694 19.1824 31.5501 20.6997C31.2452 20.8736 30.9166 20.9899 30.5771 21.0895L33.1325 17.7364C33.1326 17.7363 33.1327 17.7362 33.1328 17.7361C33.2038 17.6462 33.2472 17.5376 33.2577 17.4236C33.2683 17.3094 33.2454 17.1946 33.192 17.0931C33.1386 16.9916 33.0568 16.9079 32.9567 16.852C32.8566 16.796 32.7423 16.7704 32.6279 16.7782C32.5417 16.784 32.4577 16.8087 32.382 16.8504C32.3064 16.8921 32.2409 16.9497 32.19 17.0194C32.1899 17.0195 32.1898 17.0197 32.1897 17.0198L29.7216 20.2612C29.2506 17.6585 30.3362 15.0134 32.6541 13.6689C33.1407 13.3907 33.6854 13.2407 34.2366 13.1048ZM24.1975 45.3479L22.9994 34.5987H35.6326L34.4345 45.3479H24.1975Z" fill="white" stroke="#404A3D" stroke-width="0.1"/>
</svg>
